<?xml version="1.0" encoding="UTF-8"?>
<svg xmlns="http://www.w3.org/2000/svg" width="560" height="320" viewBox="0 0 560 320"><rect width="560" height="320" fill="#fbfcfe"/><text x="24" y="20" font-family="ui-sans-serif,system-ui" font-size="13" fill="#33415c">before — raw polyline</text><text x="24" y="38" font-family="ui-monospace,monospace" font-size="11" fill="#7a8aa0">127 cmds · 125 lines · 0 curves</text><g transform="translate(24,300) scale(0.34,-0.34)"><path d="M63.7 341.5 L86.3 380.3 L84.1 409.1 L91.6 448.9 L100.7 470.5 L111.3 491.6 L147.3 516.0 L167.9 536.0 L194.5 564.0 L220.5 587.7 L260.7 595.5 L286.5 596.9 L313.4 610.7 L340.7 619.0 L376.5 621.1 L414.3 611.0 L438.0 606.3 L463.1 600.5 L486.0 591.7 L510.8 578.6 L537.1 560.9 L540.4 558.3 L543.0 555.0 L544.7 551.2 L545.5 547.0 L545.3 542.8 L544.0 538.8 L541.8 535.2 L538.9 532.2 L535.3 530.0 L531.2 528.8 L527.0 528.5 L522.9 529.3 L519.0 531.0 L519.0 531.0 L491.1 545.9 L461.8 557.0 L433.1 562.2 L405.1 565.6 L366.2 574.0 L339.2 563.3 L306.9 545.8 L284.5 539.9 L246.6 537.2 L228.6 514.8 L209.6 481.5 L189.2 464.7 L167.6 456.2 L156.6 436.0 L147.8 413.3 L150.9 376.7 L142.0 352.6 L125.1 332.2 L132.7 300.8 L150.3 269.5 L165.1 235.7 L175.5 210.8 L197.6 187.7 L228.1 166.4 L248.3 154.0 L278.7 143.7 L309.4 138.5 L349.2 127.8 L377.2 132.7 L402.6 140.9 L430.1 152.0 L470.2 153.1 L496.3 172.9 L497.9 174.0 L499.3 175.2 L500.2 175.6 L501.0 176.1 L502.8 176.7 L504.5 177.4 L505.5 177.4 L506.4 177.7 L508.3 177.6 L510.2 177.7 L511.1 177.5 L512.0 177.5 L513.8 176.8 L515.6 176.3 L516.4 175.8 L517.3 175.4 L518.8 174.2 L520.4 173.2 L520.9 172.4 L521.7 171.8 L522.7 170.2 L523.8 168.7 L524.1 167.8 L524.6 167.0 L525.1 165.1 L525.7 163.4 L525.7 162.4 L525.9 161.5 L525.7 159.6 L525.8 157.7 L525.5 156.8 L525.4 155.9 L524.6 154.1 L524.0 152.3 L523.4 151.6 L523.1 150.7 L521.8 149.3 L520.6 147.8 L520.6 147.8 L505.3 129.7 L471.8 114.0 L434.7 111.0 L414.4 96.7 L387.5 86.7 L356.4 77.1 L317.3 83.5 L277.8 89.4 L251.8 94.1 L222.1 102.9 L195.9 117.1 L158.9 141.7 L136.3 162.1 L116.9 184.7 L103.9 222.0 L84.3 253.1 L73.1 275.2 L66.9 306.2 L63.7 341.5 Z" fill="none" stroke="#c0392b" stroke-width="6"/><circle cx="63.723760304310574" cy="341.5493813661183" r="6" fill="#c0392b"/><circle cx="86.30918759958894" cy="380.34686925680535" r="6" fill="#c0392b"/><circle cx="84.12012896358976" cy="409.1354438425065" r="6" fill="#c0392b"/><circle cx="91.61052218896131" cy="448.8522002574497" r="6" fill="#c0392b"/><circle cx="100.6782011009209" cy="470.49346074394725" r="6" fill="#c0392b"/><circle cx="111.27429589655581" cy="491.5780166465852" r="6" fill="#c0392b"/><circle cx="147.3036995388177" cy="515.9592744677445" r="6" fill="#c0392b"/><circle cx="167.87620750249872" cy="535.9828106153194" r="6" fill="#c0392b"/><circle cx="194.48819372088045" cy="564.0423617457966" r="6" fill="#c0392b"/><circle cx="220.5432197094905" cy="587.6737811850369" r="6" fill="#c0392b"/><circle cx="260.7387717097883" cy="595.4724644303318" r="6" fill="#c0392b"/><circle cx="286.50432821629363" cy="596.9461502891525" r="6" fill="#c0392b"/><circle cx="313.4279831363959" cy="610.7094472282977" r="6" fill="#c0392b"/><circle cx="340.72356665192757" cy="619.0213353094782" r="6" fill="#c0392b"/><circle cx="376.5003524321349" cy="621.1423881610574" r="6" fill="#c0392b"/><circle cx="414.3365177061028" cy="611.0256759947615" r="6" fill="#c0392b"/><circle cx="437.97999479044313" cy="606.2559651352059" r="6" fill="#c0392b"/><circle cx="463.0701744552317" cy="600.5148183773771" r="6" fill="#c0392b"/><circle cx="486.0404764741873" cy="591.7459415496253" r="6" fill="#c0392b"/><circle cx="510.82008775503454" cy="578.6038152743719" r="6" fill="#c0392b"/><circle cx="537.0794648548058" cy="560.9304646884989" r="6" fill="#c0392b"/><circle cx="540.4005942300506" cy="558.3364902712947" r="6" fill="#c0392b"/><circle cx="543.004413423017" cy="555.0230737241995" r="6" fill="#c0392b"/><circle cx="544.7395883398701" cy="551.1827909726111" r="6" fill="#c0392b"/><circle cx="545.5052705329153" cy="547.0388394304864" r="6" fill="#c0392b"/><circle cx="545.2569585171177" cy="542.8320657561567" r="6" fill="#c0392b"/><circle cx="544.009084198502" cy="538.8069678332281" r="6" fill="#c0392b"/><circle cx="541.8341740910976" cy="535.1974845420999" r="6" fill="#c0392b"/><circle cx="538.8586340725342" cy="532.2133992212432" r="6" fill="#c0392b"/><circle cx="535.2554026684961" cy="530.028147049713" r="6" fill="#c0392b"/><circle cx="531.2338998574832" cy="528.768734986392" r="6" fill="#c0392b"/><circle cx="527.0278555718207" cy="528.5083601195738" r="6" fill="#c0392b"/><circle cx="522.8817253030118" cy="529.2621554487516" r="6" fill="#c0392b"/><circle cx="519.0364823370845" cy="530.9863103539765" r="6" fill="#c0392b"/><circle cx="519.0379795448025" cy="530.9854082048498" r="6" fill="#c0392b"/><circle cx="491.1431785029835" cy="545.9392062753933" r="6" fill="#c0392b"/><circle cx="461.83138833272073" cy="557.0072931752843" r="6" fill="#c0392b"/><circle cx="433.1394376098582" cy="562.1792107812395" r="6" fill="#c0392b"/><circle cx="405.06356188560966" cy="565.6301247564821" r="6" fill="#c0392b"/><circle cx="366.17994479883265" cy="574.0006142287408" r="6" fill="#c0392b"/><circle cx="339.22075597085893" cy="563.320150450112" r="6" fill="#c0392b"/><circle cx="306.9135386537237" cy="545.7979244497429" r="6" fill="#c0392b"/><circle cx="284.48293126390377" cy="539.891170832926" r="6" fill="#c0392b"/><circle cx="246.5641314861882" cy="537.1867485972787" r="6" fill="#c0392b"/><circle cx="228.61156858664364" cy="514.832529895144" r="6" fill="#c0392b"/><circle cx="209.61293166374855" cy="481.4978294338677" r="6" fill="#c0392b"/><circle cx="189.20158906364634" cy="464.66917112766384" r="6" fill="#c0392b"/><circle cx="167.5976548255923" cy="456.20325040546203" r="6" fill="#c0392b"/><circle cx="156.625205255137" cy="435.9709208337355" r="6" fill="#c0392b"/><circle cx="147.7549942510725" cy="413.2712658339686" r="6" fill="#c0392b"/><circle cx="150.85189091874432" cy="376.74563686440376" r="6" fill="#c0392b"/><circle cx="142.0110375814659" cy="352.61069871504293" r="6" fill="#c0392b"/><circle cx="125.12089332242368" cy="332.1840890530085" r="6" fill="#c0392b"/><circle cx="132.6977213254953" cy="300.80244010110056" r="6" fill="#c0392b"/><circle cx="150.26370960231634" cy="269.5099842486998" r="6" fill="#c0392b"/><circle cx="165.11757485277303" cy="235.7151701483225" r="6" fill="#c0392b"/><circle cx="175.45870728963308" cy="210.8415077952244" r="6" fill="#c0392b"/><circle cx="197.59178707510245" cy="187.67747656662243" r="6" fill="#c0392b"/><circle cx="228.05772235845615" cy="166.37456683801145" r="6" fill="#c0392b"/><circle cx="248.3377372143965" cy="154.02596200087476" r="6" fill="#c0392b"/><circle cx="278.73959853882786" cy="143.6859027199239" r="6" fill="#c0392b"/><circle cx="309.44209993917804" cy="138.49305396358454" r="6" fill="#c0392b"/><circle cx="349.1645499058932" cy="127.7808748774612" r="6" fill="#c0392b"/><circle cx="377.15942733943035" cy="132.70485445944098" r="6" fill="#c0392b"/><circle cx="402.63528412062857" cy="140.88545675461899" r="6" fill="#c0392b"/><circle cx="430.0625329359624" cy="151.9629484274892" r="6" fill="#c0392b"/><circle cx="470.2295445025778" cy="153.08951664224855" r="6" fill="#c0392b"/><circle cx="496.3178162245951" cy="172.90038765777524" r="6" fill="#c0392b"/><circle cx="497.87399122214555" cy="173.9808497541568" r="6" fill="#c0392b"/><circle cx="499.3044695182798" cy="175.2229491096864" r="6" fill="#c0392b"/><circle cx="500.1833212944499" cy="175.58423215979008" r="6" fill="#c0392b"/><circle cx="500.9638487224289" cy="176.1261572661856" r="6" fill="#c0392b"/><circle cx="502.78356154617603" cy="176.6531527157" r="6" fill="#c0392b"/><circle cx="504.5357705161665" cy="177.3734600738486" r="6" fill="#c0392b"/><circle cx="505.4839760583303" cy="177.43520257606065" r="6" fill="#c0392b"/><circle cx="506.39668560077604" cy="177.69952657780436" r="6" fill="#c0392b"/><circle cx="508.28941183771553" cy="177.6178788177741" r="6" fill="#c0392b"/><circle cx="510.17989473986637" cy="177.74097780800093" r="6" fill="#c0392b"/><circle cx="511.0981766774574" cy="177.4967153060412" r="6" fill="#c0392b"/><circle cx="512.0475074043438" cy="177.45576341037588" r="6" fill="#c0392b"/><circle cx="513.8150781178376" cy="176.77402098282903" r="6" fill="#c0392b"/><circle cx="515.645900893254" cy="176.2870231083623" r="6" fill="#c0392b"/><circle cx="516.4381148650034" cy="175.76232995066505" r="6" fill="#c0392b"/><circle cx="517.3246715986268" cy="175.42038983187706" r="6" fill="#c0392b"/><circle cx="518.7820216683785" cy="174.20993134894013" r="6" fill="#c0392b"/><circle cx="520.361496689184" cy="173.16382541579173" r="6" fill="#c0392b"/><circle cx="520.9446976831258" cy="172.41363711447343" r="6" fill="#c0392b"/><circle cx="521.6756576994471" cy="171.80650999326326" r="6" fill="#c0392b"/><circle cx="522.6702021884506" cy="170.19407077763003" r="6" fill="#c0392b"/><circle cx="523.8329580030264" cy="168.69838435314534" r="6" fill="#c0392b"/><circle cx="524.1460847211445" cy="167.80124582138478" r="6" fill="#c0392b"/><circle cx="524.6449163135005" cy="166.99249806760895" r="6" fill="#c0392b"/><circle cx="525.0725261512227" cy="165.14690093079867" r="6" fill="#c0392b"/><circle cx="525.696821918845" cy="163.3582327784444" r="6" fill="#c0392b"/><circle cx="525.7070899110951" cy="162.4080746573378" r="6" fill="#c0392b"/><circle cx="525.9215652800872" cy="161.48238237430576" r="6" fill="#c0392b"/><circle cx="525.7374696036406" cy="159.59686182373287" r="6" fill="#c0392b"/><circle cx="525.7579413926412" cy="157.70248597122304" r="6" fill="#c0392b"/><circle cx="525.4642755975243" cy="156.79879006686815" r="6" fill="#c0392b"/><circle cx="525.371939115403" cy="155.85307348097206" r="6" fill="#c0392b"/><circle cx="524.5954127907085" cy="154.12504401601086" r="6" fill="#c0392b"/><circle cx="524.0099171993747" cy="152.32330211516944" r="6" fill="#c0392b"/><circle cx="523.4430645031596" cy="151.56068562730445" r="6" fill="#c0392b"/><circle cx="523.0535838239776" cy="150.6939615147329" r="6" fill="#c0392b"/><circle cx="521.7659293622137" cy="149.30434827652027" r="6" fill="#c0392b"/><circle cx="520.635767933514" cy="147.78388317997917" r="6" fill="#c0392b"/><circle cx="520.639535409214" cy="147.7875308727629" r="6" fill="#c0392b"/><circle cx="505.3271441424582" cy="129.68504638975276" r="6" fill="#c0392b"/><circle cx="471.8337993815936" cy="113.95623497593715" r="6" fill="#c0392b"/><circle cx="434.6538009266206" cy="111.0406351199681" r="6" fill="#c0392b"/><circle cx="414.43789291210294" cy="96.74747459741536" r="6" fill="#c0392b"/><circle cx="387.51923195397904" cy="86.66203561681573" r="6" fill="#c0392b"/><circle cx="356.38102661990513" cy="77.13700636130545" r="6" fill="#c0392b"/><circle cx="317.2979955893952" cy="83.4942191633935" r="6" fill="#c0392b"/><circle cx="277.79076519895165" cy="89.3892527185725" r="6" fill="#c0392b"/><circle cx="251.76409688386843" cy="94.14628130217477" r="6" fill="#c0392b"/><circle cx="222.07683688236904" cy="102.85542033145691" r="6" fill="#c0392b"/><circle cx="195.89545657591162" cy="117.0500014305461" r="6" fill="#c0392b"/><circle cx="158.89941333066457" cy="141.65149203132103" r="6" fill="#c0392b"/><circle cx="136.32167224560544" cy="162.06764283494977" r="6" fill="#c0392b"/><circle cx="116.91857638441851" cy="184.71352854783254" r="6" fill="#c0392b"/><circle cx="103.9105160049987" cy="221.99228694464068" r="6" fill="#c0392b"/><circle cx="84.26740205886543" cy="253.0993465211743" r="6" fill="#c0392b"/><circle cx="73.13209482342688" cy="275.1959097355021" r="6" fill="#c0392b"/><circle cx="66.9305283167055" cy="306.2132989564199" r="6" fill="#c0392b"/><circle cx="63.723760304310574" cy="341.5493813661183" r="6" fill="#c0392b"/></g><text x="300" y="20" font-family="ui-sans-serif,system-ui" font-size="13" fill="#33415c">after — RDP + cubic fit</text><text x="300" y="38" font-family="ui-monospace,monospace" font-size="11" fill="#7a8aa0">59 cmds · 57 curves</text><g transform="translate(300,300) scale(0.34,-0.34)"><path d="M63.7 341.5 C65.9 359.1 82.9 369.1 86.3 380.3 C89.7 391.6 83.2 397.7 84.1 409.1 C85.0 420.6 87.1 435.1 91.6 448.9 C96.1 462.6 102.0 480.4 111.3 491.6 C120.6 502.8 129.1 499.9 147.3 516.0 C165.5 532.0 197.3 574.2 220.5 587.7 C243.7 601.2 271.0 593.1 286.5 596.9 C302.0 600.8 304.4 607.0 313.4 610.7 C322.5 614.4 330.2 617.3 340.7 619.0 C351.2 620.8 356.1 624.2 376.5 621.1 C396.9 618.1 444.8 605.4 463.1 600.5 C481.3 595.6 473.7 598.3 486.0 591.7 C498.4 585.1 527.3 567.7 537.1 560.9 C546.9 554.2 543.9 555.5 544.7 551.2 C545.5 546.9 544.8 539.0 541.8 535.2 C538.9 531.4 540.4 524.9 527.0 528.5 C513.7 532.1 488.6 549.4 461.8 557.0 C435.0 564.6 392.0 575.9 366.2 574.0 C340.4 572.1 320.5 551.5 306.9 545.8 C293.3 540.1 294.5 541.3 284.5 539.9 C274.4 538.5 255.9 541.4 246.6 537.2 C237.3 533.0 234.8 524.1 228.6 514.8 C222.5 505.6 216.2 489.9 209.6 481.5 C203.0 473.1 196.2 468.9 189.2 464.7 C182.2 460.5 174.5 464.8 167.6 456.2 C160.7 447.6 150.5 426.5 147.8 413.3 C145.0 400.0 151.8 386.9 150.9 376.7 C149.9 366.6 146.3 360.0 142.0 352.6 C137.7 345.2 126.7 340.8 125.1 332.2 C123.6 323.5 128.5 311.2 132.7 300.8 C136.9 290.4 143.1 284.5 150.3 269.5 C157.4 254.5 167.6 224.5 175.5 210.8 C183.3 197.2 188.8 195.1 197.6 187.7 C206.4 180.3 219.6 172.0 228.1 166.4 C236.5 160.8 239.9 157.8 248.3 154.0 C256.8 150.2 261.9 148.1 278.7 143.7 C295.5 139.3 332.8 129.6 349.2 127.8 C365.6 126.0 363.7 128.7 377.2 132.7 C390.6 136.7 414.6 148.6 430.1 152.0 C445.6 155.4 458.7 149.2 470.2 153.1 C481.8 157.0 492.3 171.2 499.3 175.2 C506.3 179.3 507.8 178.8 512.0 177.5 C516.3 176.1 522.8 171.5 524.6 167.0 C526.5 162.5 526.3 156.9 523.1 150.7 C519.8 144.5 513.9 135.8 505.3 129.7 C496.8 123.6 483.6 117.1 471.8 114.0 C460.1 110.8 444.2 113.9 434.7 111.0 C425.1 108.2 427.5 102.4 414.4 96.7 C401.4 91.1 383.5 77.6 356.4 77.1 C329.3 76.7 274.1 89.9 251.8 94.1 C229.4 98.4 231.4 99.0 222.1 102.9 C212.8 106.7 206.4 110.6 195.9 117.1 C185.4 123.5 172.1 130.4 158.9 141.7 C145.7 152.9 126.1 171.3 116.9 184.7 C107.8 198.1 111.2 206.9 103.9 222.0 C96.6 237.1 79.8 255.3 73.1 275.2 C66.4 295.1 61.5 324.0 63.7 341.5 Z" fill="none" stroke="#0b6e4f" stroke-width="6"/><circle cx="63.723760304310574" cy="341.5493813661183" r="6" fill="#0b6e4f"/><circle cx="86.30918759958894" cy="380.34686925680535" r="6" fill="#0b6e4f"/><circle cx="84.12012896358976" cy="409.1354438425065" r="6" fill="#0b6e4f"/><circle cx="91.61052218896131" cy="448.8522002574497" r="6" fill="#0b6e4f"/><circle cx="111.27429589655581" cy="491.5780166465852" r="6" fill="#0b6e4f"/><circle cx="147.3036995388177" cy="515.9592744677445" r="6" fill="#0b6e4f"/><circle cx="220.5432197094905" cy="587.6737811850369" r="6" fill="#0b6e4f"/><circle cx="286.50432821629363" cy="596.9461502891525" r="6" fill="#0b6e4f"/><circle cx="313.4279831363959" cy="610.7094472282977" r="6" fill="#0b6e4f"/><circle cx="340.72356665192757" cy="619.0213353094782" r="6" fill="#0b6e4f"/><circle cx="376.5003524321349" cy="621.1423881610574" r="6" fill="#0b6e4f"/><circle cx="463.0701744552317" cy="600.5148183773771" r="6" fill="#0b6e4f"/><circle cx="486.0404764741873" cy="591.7459415496253" r="6" fill="#0b6e4f"/><circle cx="537.0794648548058" cy="560.9304646884989" r="6" fill="#0b6e4f"/><circle cx="544.7395883398701" cy="551.1827909726111" r="6" fill="#0b6e4f"/><circle cx="541.8341740910976" cy="535.1974845420999" r="6" fill="#0b6e4f"/><circle cx="527.0278555718207" cy="528.5083601195738" r="6" fill="#0b6e4f"/><circle cx="461.83138833272073" cy="557.0072931752843" r="6" fill="#0b6e4f"/><circle cx="366.17994479883265" cy="574.0006142287408" r="6" fill="#0b6e4f"/><circle cx="306.9135386537237" cy="545.7979244497429" r="6" fill="#0b6e4f"/><circle cx="284.48293126390377" cy="539.891170832926" r="6" fill="#0b6e4f"/><circle cx="246.5641314861882" cy="537.1867485972787" r="6" fill="#0b6e4f"/><circle cx="228.61156858664364" cy="514.832529895144" r="6" fill="#0b6e4f"/><circle cx="209.61293166374855" cy="481.4978294338677" r="6" fill="#0b6e4f"/><circle cx="189.20158906364634" cy="464.66917112766384" r="6" fill="#0b6e4f"/><circle cx="167.5976548255923" cy="456.20325040546203" r="6" fill="#0b6e4f"/><circle cx="147.7549942510725" cy="413.2712658339686" r="6" fill="#0b6e4f"/><circle cx="150.85189091874432" cy="376.74563686440376" r="6" fill="#0b6e4f"/><circle cx="142.0110375814659" cy="352.61069871504293" r="6" fill="#0b6e4f"/><circle cx="125.12089332242368" cy="332.1840890530085" r="6" fill="#0b6e4f"/><circle cx="132.6977213254953" cy="300.80244010110056" r="6" fill="#0b6e4f"/><circle cx="150.26370960231634" cy="269.5099842486998" r="6" fill="#0b6e4f"/><circle cx="175.45870728963308" cy="210.8415077952244" r="6" fill="#0b6e4f"/><circle cx="197.59178707510245" cy="187.67747656662243" r="6" fill="#0b6e4f"/><circle cx="228.05772235845615" cy="166.37456683801145" r="6" fill="#0b6e4f"/><circle cx="248.3377372143965" cy="154.02596200087476" r="6" fill="#0b6e4f"/><circle cx="278.73959853882786" cy="143.6859027199239" r="6" fill="#0b6e4f"/><circle cx="349.1645499058932" cy="127.7808748774612" r="6" fill="#0b6e4f"/><circle cx="377.15942733943035" cy="132.70485445944098" r="6" fill="#0b6e4f"/><circle cx="430.0625329359624" cy="151.9629484274892" r="6" fill="#0b6e4f"/><circle cx="470.2295445025778" cy="153.08951664224855" r="6" fill="#0b6e4f"/><circle cx="499.3044695182798" cy="175.2229491096864" r="6" fill="#0b6e4f"/><circle cx="512.0475074043438" cy="177.45576341037588" r="6" fill="#0b6e4f"/><circle cx="524.6449163135005" cy="166.99249806760895" r="6" fill="#0b6e4f"/><circle cx="523.0535838239776" cy="150.6939615147329" r="6" fill="#0b6e4f"/><circle cx="505.3271441424582" cy="129.68504638975276" r="6" fill="#0b6e4f"/><circle cx="471.8337993815936" cy="113.95623497593715" r="6" fill="#0b6e4f"/><circle cx="434.6538009266206" cy="111.0406351199681" r="6" fill="#0b6e4f"/><circle cx="414.43789291210294" cy="96.74747459741536" r="6" fill="#0b6e4f"/><circle cx="356.38102661990513" cy="77.13700636130545" r="6" fill="#0b6e4f"/><circle cx="251.76409688386843" cy="94.14628130217477" r="6" fill="#0b6e4f"/><circle cx="222.07683688236904" cy="102.85542033145691" r="6" fill="#0b6e4f"/><circle cx="195.89545657591162" cy="117.0500014305461" r="6" fill="#0b6e4f"/><circle cx="158.89941333066457" cy="141.65149203132103" r="6" fill="#0b6e4f"/><circle cx="116.91857638441851" cy="184.71352854783254" r="6" fill="#0b6e4f"/><circle cx="103.9105160049987" cy="221.99228694464068" r="6" fill="#0b6e4f"/><circle cx="73.13209482342688" cy="275.1959097355021" r="6" fill="#0b6e4f"/><circle cx="63.723760304310574" cy="341.5493813661183" r="6" fill="#0b6e4f"/></g></svg>
