<?xml version="1.0" encoding="UTF-8"?>
<svg xmlns="http://www.w3.org/2000/svg" width="480" height="300" viewBox="0 0 480 300"><rect width="480" height="300" fill="#fbfcfe"/><text x="20" y="26" font-family="ui-sans-serif,system-ui" font-size="13" fill="#c0392b">uniform advance (old · 600 everywhere) — gap after every I, O's crowd</text><g transform="translate(20,130) scale(0.095,-0.095)"><path d="M70.0 700.0 L180.0 700.0 L180.0 0.0 L70.0 0.0 Z" fill="#1a1a2e"/></g><g transform="translate(77,130) scale(0.095,-0.095)"><path d="M670.0 350.0 C670.0 543.3 535.7 700.0 370.0 700.0 C204.3 700.0 70.0 543.3 70.0 350.0 C70.0 156.7 204.3 0.0 370.0 0.0 C535.7 0.0 670.0 156.7 670.0 350.0 Z" fill="#1a1a2e"/></g><g transform="translate(134,130) scale(0.095,-0.095)"><path d="M70.0 700.0 L180.0 700.0 L180.0 0.0 L70.0 0.0 Z" fill="#1a1a2e"/></g><g transform="translate(191,130) scale(0.095,-0.095)"><path d="M670.0 350.0 C670.0 543.3 535.7 700.0 370.0 700.0 C204.3 700.0 70.0 543.3 70.0 350.0 C70.0 156.7 204.3 0.0 370.0 0.0 C535.7 0.0 670.0 156.7 670.0 350.0 Z" fill="#1a1a2e"/></g><g transform="translate(248,130) scale(0.095,-0.095)"><path d="M670.0 350.0 C670.0 543.3 535.7 700.0 370.0 700.0 C204.3 700.0 70.0 543.3 70.0 350.0 C70.0 156.7 204.3 0.0 370.0 0.0 C535.7 0.0 670.0 156.7 670.0 350.0 Z" fill="#1a1a2e"/></g><g transform="translate(305,130) scale(0.095,-0.095)"><path d="M70.0 700.0 L180.0 700.0 L180.0 0.0 L70.0 0.0 Z" fill="#1a1a2e"/></g><text x="20" y="172" font-family="ui-sans-serif,system-ui" font-size="13" fill="#0b6e4f">metric advance (new · derived from ink) — even rhythm</text><g transform="translate(20,276) scale(0.095,-0.095)"><path d="M70.0 700.0 L180.0 700.0 L180.0 0.0 L70.0 0.0 Z" fill="#1a1a2e"/></g><g transform="translate(43.75,276) scale(0.095,-0.095)"><path d="M670.0 350.0 C670.0 543.3 535.7 700.0 370.0 700.0 C204.3 700.0 70.0 543.3 70.0 350.0 C70.0 156.7 204.3 0.0 370.0 0.0 C535.7 0.0 670.0 156.7 670.0 350.0 Z" fill="#1a1a2e"/></g><g transform="translate(114.05,276) scale(0.095,-0.095)"><path d="M70.0 700.0 L180.0 700.0 L180.0 0.0 L70.0 0.0 Z" fill="#1a1a2e"/></g><g transform="translate(137.8,276) scale(0.095,-0.095)"><path d="M670.0 350.0 C670.0 543.3 535.7 700.0 370.0 700.0 C204.3 700.0 70.0 543.3 70.0 350.0 C70.0 156.7 204.3 0.0 370.0 0.0 C535.7 0.0 670.0 156.7 670.0 350.0 Z" fill="#1a1a2e"/></g><g transform="translate(208.10000000000002,276) scale(0.095,-0.095)"><path d="M670.0 350.0 C670.0 543.3 535.7 700.0 370.0 700.0 C204.3 700.0 70.0 543.3 70.0 350.0 C70.0 156.7 204.3 0.0 370.0 0.0 C535.7 0.0 670.0 156.7 670.0 350.0 Z" fill="#1a1a2e"/></g><g transform="translate(278.40000000000003,276) scale(0.095,-0.095)"><path d="M70.0 700.0 L180.0 700.0 L180.0 0.0 L70.0 0.0 Z" fill="#1a1a2e"/></g></svg>
