<?xml version="1.0" encoding="UTF-8"?>
<svg xmlns="http://www.w3.org/2000/svg" width="439" height="402" viewBox="0 0 439 402"><rect width="439" height="402" fill="#fbfcfe"/><g transform="translate(24,48)"><text x="0" y="-10" font-family="ui-sans-serif,system-ui" font-size="12" fill="#7a8aa0">Proof A · opentype.js .otf — lines, cubic curves, hollow counter (O)</text><g transform="translate(0,8)"><g transform="translate(0.0,80.0) scale(0.1143,-0.1143)"><path d="M120 700H250V0H120ZM510 700H640V0H510ZM250 400H510V300H250Z" fill="#1a1a2e"/></g><g transform="translate(92.9,80.0) scale(0.1143,-0.1143)"><path d="M115 700H245V0H115Z" fill="#1a1a2e"/></g><g transform="translate(140.0,80.0) scale(0.1143,-0.1143)"><path d="M120 700H250V0H120ZM120 120H540V0H120Z" fill="#1a1a2e"/></g><g transform="translate(210.0,80.0) scale(0.1143,-0.1143)"><path d="M720 350C720 549 572 710 390 710C208 710 60 549 60 350C60 151 208 -10 390 -10C572 -10 720 151 720 350ZM590 350C590 223 500 120 390 120C280 120 190 223 190 350C190 477 280 580 390 580C500 580 590 477 590 350Z" fill="#1a1a2e"/></g><g transform="translate(305.1,80.0) scale(0.1143,-0.1143)"><path d="M80 700H700V570H80ZM325 570H455V0H325Z" fill="#1a1a2e"/></g></g></g><g transform="translate(24,158)"><text x="0" y="-10" font-family="ui-sans-serif,system-ui" font-size="12" fill="#7a8aa0">Proof C · pen stroke → perfect-freehand outline → glyph</text><g transform="translate(0,8)"><g transform="translate(0.0,80.0) scale(0.1143,-0.1143)"><path d="M58 346C58 360 59 374 61 388C62 402 65 416 69 430C73 444 78 458 84 471C89 484 96 497 104 509C111 521 120 533 129 544C138 555 148 565 159 574C170 584 181 593 193 601C205 609 217 616 230 622C243 628 256 633 269 637C283 641 297 644 311 646C325 648 339 649 353 649C367 649 381 648 395 646C409 644 423 641 437 637C450 633 463 628 477 621C491 615 507 606 520 597C532 588 546 576 552 570C558 564 554 564 554 561C554 558 554 555 552 552C550 549 545 545 542 543C539 542 544 538 533 543C521 548 490 567 474 575C458 583 450 586 438 590C427 594 416 596 404 598C392 600 380 601 368 601C357 601 345 600 334 598C322 597 311 595 300 592C289 589 278 585 268 580C258 575 248 570 238 564C228 558 219 551 210 544C202 537 194 529 186 521C178 513 171 504 165 495C159 486 153 476 148 466C143 456 139 446 135 435C132 424 129 413 127 402C125 392 124 381 123 370C122 359 122 348 123 337C124 326 126 315 129 304C131 293 134 282 138 272C142 261 147 251 152 241C157 231 163 221 170 212C177 203 184 194 192 186C200 178 209 170 218 163C227 156 237 150 247 144C257 139 267 134 278 130C288 125 299 122 310 119C321 117 332 115 343 114C354 113 366 113 378 114C390 114 402 115 413 117C424 119 435 122 446 126C457 130 467 134 478 140C489 146 504 157 512 160C519 163 520 161 523 161C526 161 528 160 530 158C532 156 534 152 535 149C536 147 536 145 536 142C535 139 536 137 532 133C528 129 521 123 512 117C503 111 489 102 477 96C465 90 452 85 439 81C426 76 412 73 398 71C384 68 370 67 356 67C343 67 329 68 315 70C301 71 287 74 273 78C260 82 247 87 234 92C221 97 208 103 196 110C184 117 172 125 161 134C150 143 140 153 130 163C121 174 112 185 104 197C96 209 89 221 83 234C77 246 72 259 68 273C64 287 61 301 59 315C57 329 56 343 56 357Z" fill="#0b6e4f"/></g></g></g><g transform="translate(24,268)"><text x="0" y="-10" font-family="ui-sans-serif,system-ui" font-size="12" fill="#7a8aa0">Proof B · the 3 'calt' alternates HarfBuzz cycles through (a · a.calt1 · a.calt2)</text><g transform="translate(0,8)"><g transform="translate(0.0,80.0) scale(0.1143,-0.1143)"><path d="M80 0V500H480V0Z" fill="#b3541e"/></g><g transform="translate(74.6,80.0) scale(0.1143,-0.1143)"><path d="M80 0V500H480V0ZM130 520V640H280V520Z" fill="#b3541e"/></g><g transform="translate(149.1,80.0) scale(0.1143,-0.1143)"><path d="M80 0V500H480V0ZM280 520V640H430V520Z" fill="#b3541e"/></g></g></g></svg>
